<?xml version="1.0" encoding="UTF-8" standalone="no"?>
<svg
   version="1.1"
   width="554px"
   height="274px"
   viewBox="-0.35 -2.15 554.1 274.05"
   id="svg71"
   xmlns:xlink="http://www.w3.org/1999/xlink"
   xmlns="http://www.w3.org/2000/svg"
   xmlns:svg="http://www.w3.org/2000/svg">
  <defs
     id="defs71">
    <linearGradient
       id="linearGradient73">
      <stop
         style="stop-color:#008000;stop-opacity:1;"
         offset="0"
         id="stop73" />
      <stop
         style="stop-color:#008000;stop-opacity:0;"
         offset="1"
         id="stop74" />
    </linearGradient>
    <linearGradient
       xlink:href="#linearGradient73"
       id="linearGradient74"
       x1="3.7007265"
       y1="137.56104"
       x2="550.52"
       y2="137.56104"
       gradientUnits="userSpaceOnUse" />
  </defs>
  <g
     id="g71">
    <path
       fill="#f09cb4"
       d="M70.95 143.65 Q73.5 136.8 79.8 132.35 84.95 128.7 90.8 127.7 100.8 126.0 109.35 132.35 113.2 135.2 116.15 140.05 119.7 145.9 119.8 151.75 119.9 158.5 116.95 163.9 113.65 169.85 106.9 173.8 99.95 177.85 91.45 176.75 83.25 175.7 77.0 170.35 71.3 165.45 69.85 157.25 68.55 149.95 70.95 143.65"
       id="path8"
       style="fill:#800080" />
    <path
       fill="#f09cb4"
       d="M460.3 94.1 Q470.35 92.35 478.85 98.7 482.65 101.55 485.2 105.8 488.3 111.1 488.3 116.95 488.3 123.65 484.95 129.45 481.55 135.3 475.6 138.6 468.55 142.55 460.55 141.85 452.7 141.15 446.9 136.3 441.1 131.45 439.5 123.45 438.05 116.25 440.45 110.0 443.0 103.15 449.3 98.7 454.45 95.05 460.3 94.1"
       id="path9"
       style="fill:#800080" />
    <path
       fill="#923000"
       d="M300.55 138.65 Q302.1 142.45 307.7 147.75 313.95 153.7 320.65 156.7 318.6 159.8 312.05 163.9 302.05 170.1 289.95 171.35 278.1 172.6 267.75 167.85 264.5 166.35 261.85 164.4 L259.8 162.8 Q272.25 160.65 284.8 152.8 296.25 145.65 300.55 138.65"
       id="path13"
       style="fill:#800080" />
    <path
       fill="#0f141b"
       d="M430.25 145.95 Q432.15 142.25 431.05 138.4 429.9 134.1 425.55 132.2 420.5 129.9 414.35 132.35 408.35 134.75 405.8 139.4 403.45 143.55 404.85 147.45 406.1 151.0 410.65 152.65 415.6 154.45 421.65 152.75 427.5 151.15 430.25 145.95 M402.85 148.15 Q401.2 143.4 403.55 138.5 406.25 132.9 413.05 130.15 416.95 128.6 420.9 128.7 424.05 128.8 426.5 129.9 431.4 132.05 433.2 136.9 435.1 142.0 432.35 147.4 430.85 150.3 428.3 152.4 425.65 154.55 422.35 155.45 415.3 157.4 409.55 154.85 404.4 152.55 402.85 148.15"
       id="path30" />
    <path
       fill="#0f141b"
       d="M151.6 169.45 Q148.6 165.75 143.15 164.4 138.65 163.25 134.45 165.3 129.95 167.4 129.25 171.7 128.6 175.75 131.75 179.4 134.9 183.05 139.65 183.7 145.35 184.5 149.4 182.1 153.1 179.85 153.75 176.25 154.35 172.8 151.6 169.45 M143.7 161.8 Q149.95 163.4 153.4 168.1 156.55 172.35 155.8 176.65 155.0 181.1 150.75 184.0 146.0 187.25 139.4 186.35 132.7 185.4 129.2 180.6 126.05 176.25 127.0 171.35 128.2 165.25 134.2 162.7 139.1 160.65 143.7 161.8"
       id="path31" />
    <path
       fill="#0f141b"
       d="M384.35 158.8 Q383.55 156.55 380.65 155.7 377.45 154.75 373.35 156.15 369.2 157.55 367.0 160.3 365.2 162.65 365.6 164.55 366.05 166.35 369.1 167.15 372.35 168.0 376.6 167.05 381.25 166.0 383.35 163.15 385.05 160.8 384.35 158.8 M386.35 158.05 Q387.4 161.05 385.2 164.45 382.65 168.3 377.35 169.45 L368.3 169.2 Q364.25 167.9 363.55 165.0 362.9 162.15 365.3 158.95 367.9 155.4 372.7 153.75 377.65 152.05 381.65 153.6 385.2 155.0 386.35 158.05"
       id="path32" />
    <path
       fill="#0f141b"
       d="M340.2 169.45 Q337.15 169.2 334.55 170.15 330.6 171.6 328.65 173.4 326.75 175.15 327.15 176.75 327.55 178.2 330.5 178.4 L336.85 177.65 Q340.0 176.85 342.4 174.8 344.9 172.7 344.15 171.15 343.4 169.7 340.2 169.45 M333.8 168.2 Q338.55 166.6 342.1 167.45 345.35 168.2 346.2 170.45 347.25 173.25 344.05 176.2 341.1 178.95 336.75 180.0 L329.8 180.5 Q326.05 179.95 325.1 177.2 324.25 174.8 326.55 172.35 328.95 169.8 333.8 168.2"
       id="path33" />
    <path
       fill="#0f141b"
       d="M172.8 179.15 Q172.3 181.25 175.2 183.35 178.05 185.35 181.8 185.8 L189.3 185.4 Q192.15 184.5 192.4 183.0 192.7 181.2 190.5 179.3 188.05 177.25 183.75 176.2 179.5 175.2 176.4 176.05 173.35 176.85 172.8 179.15 M173.3 184.9 Q169.9 182.0 170.7 178.65 171.5 175.35 175.25 173.9 L184.15 173.6 Q189.1 174.8 192.1 177.65 195.0 180.45 194.5 183.35 194.1 186.0 190.35 187.4 186.55 188.8 181.3 188.15 176.55 187.6 173.3 184.9"
       id="path34" />
    <path
       fill="#0f141b"
       d="M208.8 184.05 L208.75 184.35 Q208.75 184.9 209.15 185.5 209.9 186.7 211.55 187.65 213.6 188.85 216.35 189.25 221.35 190.15 223.55 188.5 224.2 187.95 224.25 187.45 224.45 186.15 223.0 184.85 221.3 183.25 217.8 182.3 L211.45 182.05 Q209.2 182.65 208.8 184.05 M206.75 183.45 Q207.45 181.15 210.5 180.15 213.85 179.0 218.35 180.25 222.8 181.45 224.9 183.75 226.65 185.65 226.35 187.75 226.15 189.15 224.8 190.2 221.85 192.35 216.0 191.35 213.1 190.9 210.75 189.6 208.45 188.35 207.35 186.65 206.3 185.0 206.75 183.45"
       id="path35" />
    <path
       fill="#0f141b"
       d="M240.6 139.9 Q241.55 135.95 244.65 135.25 247.8 134.6 250.3 137.7 252.55 140.45 253.65 145.25 254.75 150.0 253.8 153.6 252.75 157.55 249.6 158.05 246.5 158.6 243.9 155.45 241.5 152.55 240.65 148.05 239.8 143.25 240.6 139.9"
       id="path36"
       style="fill:#800080" />
    <path
       fill="#0f141b"
       d="M331.2 141.35 Q330.65 146.1 328.65 149.2 326.5 152.6 323.7 152.1 320.9 151.55 319.75 147.8 318.7 144.3 319.45 139.7 320.2 134.9 322.05 131.95 324.15 128.55 326.95 128.95 329.75 129.35 330.85 133.15 331.8 136.4 331.2 141.35"
       id="path37"
       style="fill:#800080" />
    <path
       fill="#0f141b"
       d="M336.25 111.6 Q342.0 122.75 341.9 134.6 341.75 153.55 326.1 167.0 310.35 180.45 285.4 182.75 282.85 183.0 282.85 182.3 282.8 181.6 285.35 181.25 311.3 177.65 325.65 163.7 338.5 151.25 338.65 134.55 338.75 124.1 333.45 113.75 328.25 103.5 318.9 95.55 309.2 87.3 297.1 83.3 284.05 78.95 270.15 80.25 257.5 81.45 246.4 87.25 235.3 93.0 227.7 102.3 221.05 110.45 218.1 120.05 215.15 129.65 216.25 139.6 218.0 155.45 230.15 167.15 242.3 178.9 260.35 182.15 260.8 182.25 260.05 183.0 259.25 183.75 258.8 183.7 239.9 181.2 227.15 168.75 214.75 156.6 212.9 139.8 211.8 129.45 214.85 119.4 217.9 109.35 224.8 100.9 232.65 91.3 244.8 85.05 256.9 78.85 270.0 77.6 284.25 76.25 297.75 80.45 310.55 84.4 320.7 92.7 330.7 100.85 336.25 111.6"
       id="path38" />
    <path
       fill="#0f141b"
       d="M252.95 197.05 L254.15 196.95 Q255.25 197.25 255.15 197.7 254.85 199.95 254.95 203.6 255.05 206.9 255.4 209.25 255.5 209.65 254.15 209.85 252.85 210.05 252.75 209.65 252.35 207.45 252.45 203.5 252.55 199.85 252.95 197.05"
       id="path39" />
    <path
       fill="#0f141b"
       d="M324.7 198.9 Q326.25 201.2 326.55 204.5 326.75 207.45 325.95 210.35 324.5 215.45 322.2 218.4 320.8 220.2 318.75 221.45 318.4 221.7 317.75 220.8 317.15 219.95 317.5 219.7 321.9 216.5 323.6 209.9 324.3 207.35 324.15 204.45 324.05 201.35 323.0 199.8 322.45 198.9 321.45 198.75 319.55 198.55 317.1 201.95 315.35 204.35 314.25 206.95 L313.9 207.45 313.1 207.55 310.0 207.55 309.25 207.45 308.95 207.0 Q307.1 203.45 302.55 197.95 298.4 192.85 295.7 190.55 294.15 189.3 294.65 188.75 295.15 188.15 296.9 189.15 300.4 191.15 303.9 194.95 308.3 199.75 310.45 205.4 L312.6 205.4 Q314.1 201.95 316.0 199.75 318.75 196.65 321.65 196.95 323.55 197.2 324.7 198.9"
       id="path40" />
    <path
       fill="#0f141b"
       d="M303.5 179.2 Q303.1 179.2 302.95 178.55 302.85 177.85 303.25 177.85 305.6 177.65 306.6 177.9 308.6 178.4 309.4 180.4 310.7 183.75 306.75 188.05 303.15 192.0 299.25 193.0 298.85 193.1 298.4 192.05 298.0 191.0 298.4 190.85 303.2 189.1 305.8 185.8 307.9 183.15 307.6 181.25 307.35 179.2 303.5 179.2"
       id="path41" />
    <path
       fill="#0f141b"
       d="M239.25 187.5 Q238.85 184.0 241.55 182.55 243.35 181.6 245.9 181.7 L260.1 182.15 Q261.9 182.05 262.05 182.85 262.15 183.7 260.35 183.85 256.0 184.15 251.35 184.0 L245.9 183.8 Q240.95 183.8 241.35 187.25 241.75 190.3 246.35 193.0 251.7 196.15 259.15 196.0 260.9 195.95 260.95 196.7 260.95 197.5 259.25 197.7 250.9 198.85 244.85 194.85 239.75 191.5 239.25 187.5"
       id="path42" />
    <path
       fill="#0f141b"
       d="M309.75 224.85 Q310.85 223.85 311.1 224.0 311.35 224.1 310.55 225.35 308.8 228.05 304.3 230.55 299.8 233.0 294.85 234.0 287.35 235.5 278.5 234.35 271.45 233.45 267.15 231.55 266.75 231.35 267.45 230.75 268.15 230.1 268.55 230.25 273.2 231.85 280.45 232.5 L294.35 231.9 Q300.3 230.5 304.8 228.2 308.0 226.55 309.75 224.85"
       id="path43" />
    <path
       fill="#0f141b"
       d="M266.65 220.55 Q267.15 221.95 266.6 222.25 266.0 222.55 265.3 221.25 263.65 218.15 261.35 215.4 259.0 212.55 256.95 211.3 254.65 209.85 253.25 210.4 251.5 211.15 251.85 215.15 252.2 219.0 254.0 222.6 255.75 226.0 258.45 228.5 261.55 231.3 264.95 230.75 267.05 230.35 268.75 228.2 269.7 226.95 270.15 227.2 270.65 227.4 270.0 228.8 269.3 230.25 268.2 231.3 266.85 232.5 265.3 232.8 L260.9 232.6 Q258.5 231.9 256.65 230.25 253.7 227.6 251.9 223.7 250.1 219.95 249.7 215.55 249.45 212.9 250.3 211.05 250.95 209.65 252.05 208.95 253.25 208.2 254.85 208.35 256.45 208.5 258.05 209.5 260.7 211.1 263.15 214.3 265.55 217.4 266.65 220.55"
       id="path44" />
    <path
       fill="#0f141b"
       d="M261.35 163.2 Q265.65 166.3 271.65 168.3 280.55 171.3 289.85 170.3 300.8 169.15 310.1 164.05 316.2 160.7 319.6 157.0 313.25 154.5 307.55 149.25 302.95 145.0 300.4 140.6 295.15 148.1 284.55 154.45 273.2 161.3 261.35 163.2 M269.2 79.8 Q268.9 79.65 269.45 78.85 270.05 78.05 270.45 78.25 278.45 81.55 285.25 88.3 292.0 95.05 296.5 104.2 301.75 114.8 302.3 127.05 302.45 130.8 301.65 138.75 303.25 142.4 308.65 147.35 314.65 152.85 321.05 155.7 321.9 156.1 321.85 156.55 L321.55 157.25 Q319.3 160.8 312.9 164.95 302.9 171.45 290.25 172.8 278.15 174.1 267.6 169.15 264.25 167.55 261.45 165.5 L259.05 163.6 Q257.5 162.15 259.6 161.8 271.6 159.65 283.7 152.35 295.1 145.45 299.5 138.5 300.65 118.85 293.75 105.35 289.15 96.35 282.95 89.75 276.35 82.7 269.2 79.8"
       id="path45" />
    <path
       fill="#0f141b"
       d="M69.5 142.6 Q72.3 135.1 79.3 130.45 84.45 126.95 90.0 126.0 L94.1 125.6 94.9 128.35 90.95 128.75 Q85.05 130.0 80.25 133.35 74.35 137.55 71.9 144.05 69.65 150.05 71.15 157.3 72.75 165.1 78.15 169.75 84.3 175.0 92.1 175.85 99.85 176.7 106.35 172.9 119.0 165.5 118.75 151.8 118.6 144.35 113.0 137.4 L115.05 135.7 Q121.45 143.25 121.7 152.2 121.95 159.5 118.45 165.4 115.0 171.25 108.25 175.2 101.0 179.45 92.35 178.65 83.35 177.85 76.35 171.7 69.9 166.0 68.35 157.0 67.0 149.2 69.5 142.6"
       id="path48" />
    <path
       fill="#0f141b"
       d="M469.4 95.6 Q464.85 94.6 460.1 95.4 454.95 96.25 450.0 99.7 443.85 104.0 441.4 110.4 439.15 116.4 440.55 123.3 442.1 130.9 447.55 135.45 453.2 140.15 460.8 140.8 468.4 141.4 475.1 137.7 480.75 134.55 484.0 129.0 487.25 123.4 487.25 116.95 487.25 111.45 484.4 106.5 481.95 102.3 478.2 99.55 474.2 96.65 469.4 95.6 M487.35 105.3 Q490.5 110.8 490.5 116.8 490.5 123.8 486.7 130.2 482.9 136.55 476.75 140.0 468.8 144.5 459.85 143.55 451.35 142.7 445.0 137.4 439.0 132.4 437.3 124.05 435.7 116.4 438.25 109.95 441.3 102.15 448.05 97.5 453.5 93.7 460.1 92.7 471.3 90.95 480.6 97.7 484.65 100.65 487.35 105.3"
       id="path49" />
    <path
       fill="#0f141b"
       d="M189.45 53.95 Q190.3 61.5 195.6 68.9 199.95 74.9 207.15 78.45 215.3 82.5 220.15 78.95 224.5 75.75 224.05 68.0 223.55 59.6 217.0 52.85 210.45 46.1 203.75 43.15 196.45 39.95 192.55 43.1 188.55 46.4 189.45 53.95 M193.3 70.1 Q187.5 61.95 186.8 53.45 186.1 45.0 190.9 41.1 195.9 37.0 204.6 40.5 212.65 43.7 219.5 51.45 226.5 59.35 226.85 68.2 227.15 76.75 221.35 81.05 216.35 84.75 208.35 82.05 199.75 79.05 193.3 70.1"
       id="path50" />
    <path
       fill="#0f141b"
       d="M341.9 39.3 Q342.25 29.45 338.2 27.45 333.5 25.1 326.7 29.2 319.95 33.35 314.8 41.7 309.85 49.65 309.95 57.25 310.0 65.05 315.4 68.3 320.95 71.65 326.9 68.5 333.35 65.15 338.35 55.0 341.6 48.4 341.9 39.3 M325.85 27.05 Q333.55 22.8 339.15 25.55 344.6 28.25 344.2 39.45 343.8 49.0 340.3 56.4 335.05 67.45 327.7 71.05 320.75 74.45 313.95 70.3 307.55 66.35 307.15 58.05 306.7 49.75 312.45 40.4 318.1 31.3 325.85 27.05"
       id="path51" />
    <path
       fill="#0f141b"
       d="M292.75 52.65 Q293.15 52.8 292.85 54.1 292.55 55.4 292.15 55.25 274.55 49.9 257.05 53.85 244.95 56.6 239.3 61.15 238.95 61.45 238.35 60.15 237.75 58.85 238.1 58.6 246.85 51.5 262.3 49.4 278.9 47.2 292.75 52.65"
       id="path52" />
    <path
       fill="#0f141b"
       d="M194.55 95.4 L196.9 96.7 Q189.8 108.7 186.45 120.55 182.7 133.8 182.25 151.25 L180.8 151.2 Q179.3 150.7 179.3 150.25 179.3 133.1 183.3 119.3 187.05 106.35 194.55 95.4"
       id="path53" />
    <path
       fill="#0f141b"
       d="M336.45 82.25 Q336.1 81.95 337.35 80.9 338.55 79.9 338.9 80.15 360.15 98.95 364.65 130.25 364.7 130.7 363.45 132.2 362.15 133.7 362.1 133.25 359.0 113.5 349.25 97.8 343.35 88.25 336.45 82.25"
       id="path54" />
    <path
       fill="#0f141b"
       d="M365.55 177.8 Q366.75 178.25 366.65 178.7 363.85 192.85 355.75 207.05 342.6 230.2 321.75 237.55 321.35 237.7 321.2 236.4 321.0 235.1 321.4 234.95 339.45 227.3 352.75 205.05 362.0 189.55 364.3 177.75 L365.55 177.8"
       id="path55" />
    <path
       fill="#0f141b"
       d="M295.7 202.6 Q302.1 201.25 308.1 205.05 314.1 208.9 318.4 217.2 324.1 228.25 322.9 240.35 321.65 252.8 313.5 260.6 305.65 268.05 294.25 269.95 282.55 271.9 272.75 266.95 268.1 264.6 264.0 260.75 260.15 257.25 257.45 253.05 257.2 252.7 258.1 252.1 258.95 251.5 259.2 251.9 264.35 259.7 273.8 264.4 282.0 268.55 291.35 267.75 302.55 266.8 311.15 258.6 320.6 249.65 320.25 236.55 320.0 228.1 315.85 219.45 313.1 213.6 309.25 209.9 303.3 204.25 296.4 205.7 285.95 207.9 279.75 218.95 275.35 226.8 274.75 234.45 274.55 236.8 273.55 236.75 272.55 236.65 272.65 234.25 273.05 224.75 277.8 216.3 284.15 205.05 295.7 202.6"
       id="path56" />
    <path
       fill="#0f141b"
       d="M256.1 251.1 Q263.3 251.65 268.55 249.0 270.3 248.15 270.65 248.6 271.0 249.05 269.55 250.3 267.85 251.8 264.25 252.7 L255.5 253.35 Q247.65 252.75 241.15 250.85 231.2 248.0 220.95 241.6 211.55 235.75 203.2 225.55 195.15 215.75 191.05 205.75 190.85 205.35 192.25 204.75 193.6 204.15 193.75 204.55 196.85 212.0 203.35 220.5 212.2 231.95 223.2 238.8 241.2 250.0 256.1 251.1"
       id="path57" />
    <path
       fill="#0f141b"
       d="M81.5 91.75 Q92.15 92.05 101.8 95.85 L99.9 98.35 Q92.7 96.05 86.25 95.3 79.6 94.5 72.9 95.25 L72.1 92.25 81.5 91.75"
       id="path58" />
    <path
       fill="#0f141b"
       d="M201.6 170.5 Q190.45 155.0 175.55 150.3 166.85 147.6 159.05 148.9 L157.25 149.0 156.25 147.65 Q142.5 126.1 128.15 114.35 L128.8 111.15 Q137.65 118.05 143.9 125.35 151.75 134.45 158.25 146.9 167.35 143.8 179.65 148.65 194.5 154.5 203.3 169.25 204.55 171.3 203.75 171.85 203.0 172.4 201.6 170.5"
       id="path59" />
    <path
       fill="#0f141b"
       d="M40.35 168.35 L40.5 168.55 Q47.05 179.6 56.9 187.9 66.8 196.2 79.35 201.1 93.4 206.65 110.2 207.5 126.85 208.3 145.1 204.45 L146.45 204.2 147.8 204.8 Q154.9 208.5 164.65 209.0 181.4 209.85 199.05 200.05 201.25 198.85 201.7 199.7 202.15 200.55 200.1 201.95 186.45 210.95 170.25 212.05 155.25 213.0 146.3 207.1 129.5 211.75 110.5 210.75 92.45 209.85 78.05 204.2 51.25 193.6 37.65 169.35 37.55 169.15 38.95 168.75 L40.35 168.35"
       id="path60" />
    <path
       fill="#0f141b"
       d="M41.45 108.55 L42.55 109.8 Q38.1 114.75 35.65 120.3 32.7 126.9 31.95 135.3 L29.3 134.4 Q29.9 123.75 34.3 115.6 36.25 112.05 40.25 107.45 L41.45 108.55"
       id="path61" />
    <path
       fill="#0f141b"
       d="M445.4 67.1 L444.9 70.5 Q429.85 77.15 417.1 89.0 405.35 99.9 398.45 112.4 397.35 114.35 396.5 114.8 L394.55 115.05 Q385.8 115.3 377.25 120.5 362.4 129.45 355.7 150.15 354.95 152.6 354.0 152.3 353.05 152.05 353.7 149.55 359.65 126.45 376.4 117.4 384.8 112.9 395.2 112.5 403.4 95.95 416.4 84.5 428.55 73.85 445.4 67.1 M515.3 132.1 L518.3 133.55 Q506.4 155.65 481.5 166.1 457.0 176.4 428.75 171.85 418.8 181.5 399.6 183.65 378.35 186.05 359.45 176.7 357.4 175.7 357.85 175.0 L360.45 175.15 Q383.0 184.3 404.85 179.4 417.55 176.55 426.7 170.2 L428.1 169.35 429.85 169.4 Q459.15 171.8 481.55 162.05 504.05 152.25 515.3 132.1 M515.0 82.35 L517.65 81.2 Q521.4 84.7 523.6 90.05 525.9 95.75 526.05 102.5 L523.0 102.3 Q522.4 91.1 515.0 82.35 M491.25 63.95 L489.9 66.85 Q484.65 65.2 479.25 64.6 L479.25 61.35 Q485.1 62.0 491.25 63.95"
       id="path62" />
    <path
       fill="#0f141b"
       d="M339.4 0.05 Q346.65 -0.2 352.1 3.2 357.3 6.5 360.25 13.4 363.35 20.6 363.15 29.85 362.85 41.7 360.1 50.9 356.95 61.25 349.95 70.8 346.1 76.1 340.95 80.0 336.9 83.1 333.8 84.15 L331.45 84.05 Q331.2 83.25 333.1 82.15 336.05 80.5 339.55 77.45 344.05 73.6 346.85 69.45 359.4 51.0 359.85 29.3 360.2 11.8 350.6 5.7 340.9 -0.45 324.45 7.75 316.9 11.55 310.45 18.25 304.0 24.9 299.85 33.3 295.8 41.5 294.15 50.7 293.3 55.3 293.3 58.35 293.3 61.3 292.1 61.25 290.85 61.15 290.85 58.2 290.8 55.0 291.5 50.15 292.95 40.45 296.9 31.85 301.05 22.9 307.8 15.85 314.3 9.0 322.3 4.95 331.4 0.3 339.4 0.05"
       id="path63" />
    <path
       fill="#0f141b"
       d="M204.2 17.3 Q213.05 21.55 220.25 28.05 227.45 34.6 232.45 42.9 241.2 57.5 241.2 70.85 241.25 73.05 240.3 73.15 239.35 73.25 239.1 71.0 237.95 58.0 230.05 44.9 225.2 36.85 218.25 30.55 211.3 24.25 202.7 20.1 193.15 15.55 185.15 15.15 177.2 14.75 172.2 18.6 167.05 22.6 165.6 30.95 164.15 39.3 166.55 51.35 170.65 71.85 185.2 86.25 192.75 93.8 202.85 97.9 205.05 98.8 204.7 99.7 L202.05 99.85 Q197.05 98.3 191.9 95.35 186.3 92.2 182.5 88.4 167.5 73.45 163.25 52.4 160.25 37.35 163.35 27.35 165.55 20.05 170.75 16.05 176.2 11.8 185.15 12.15 194.1 12.45 204.2 17.3"
       id="path64" />
    <path
       fill="#0f141b"
       d="M444.0 91.45 Q441.7 85.7 441.65 79.25 441.6 72.2 444.35 66.0 447.55 58.85 453.9 54.6 460.25 50.35 466.9 50.9 470.4 51.15 473.3 52.65 476.15 54.1 478.0 56.5 482.45 62.35 481.0 70.3 479.6 78.0 475.35 83.9 471.85 88.75 467.25 91.3 L465.7 91.2 Q465.3 90.5 466.35 89.7 470.2 86.75 473.05 82.6 476.8 77.1 478.1 70.2 479.45 63.05 476.2 58.75 472.95 54.5 466.65 54.0 460.75 53.5 455.45 57.15 450.2 60.75 447.25 67.3 444.7 73.05 444.45 79.55 444.2 85.35 445.8 91.0 446.4 93.05 445.6 93.25 444.8 93.45 444.0 91.45"
       id="path65" />
    <path
       fill="#0f141b"
       d="M529.5 41.0 Q531.6 42.65 533.0 45.3 534.35 47.9 534.7 50.85 535.3 56.5 532.6 63.65 530.2 70.0 526.4 74.65 522.3 79.65 515.9 83.5 509.6 87.25 503.25 88.7 501.0 89.2 500.8 88.45 500.65 87.7 502.85 87.15 508.2 85.7 514.1 81.75 519.95 77.8 523.9 73.0 527.55 68.55 529.8 62.7 532.3 56.2 531.75 51.2 531.25 46.25 527.6 43.4 521.2 38.4 512.6 41.25 505.3 43.7 500.3 49.9 496.55 54.5 493.45 61.2 490.35 67.85 488.45 75.4 487.95 77.45 487.2 77.15 486.5 76.9 486.85 74.85 488.65 65.6 491.35 59.2 493.95 53.1 497.95 48.2 504.3 40.3 513.0 37.95 522.35 35.45 529.5 41.0"
       id="path66" />
    <path
       fill="#0f141b"
       d="M529.8 101.1 Q539.4 102.25 546.1 106.8 553.75 112.0 553.75 119.6 553.75 122.55 552.6 125.3 551.4 128.1 549.3 130.1 546.1 133.2 540.7 134.95 535.2 136.75 529.35 136.55 515.15 136.05 503.8 127.1 502.1 125.8 502.65 125.2 503.15 124.6 504.9 125.75 515.85 133.05 529.65 133.5 535.05 133.7 539.8 132.2 544.55 130.7 547.35 127.95 550.95 124.6 550.95 119.55 550.95 113.45 544.3 109.0 538.2 104.9 529.65 103.95 521.65 103.0 514.55 105.5 512.8 106.1 506.7 109.3 504.55 110.45 504.25 109.9 503.95 109.35 505.8 107.75 509.1 104.85 513.7 103.05 521.15 100.1 529.8 101.1"
       id="path67" />
    <path
       fill="#0f141b"
       d="M31.05 80.8 Q32.05 70.4 39.6 66.65 47.2 62.9 56.25 67.95 64.6 72.65 69.65 81.8 73.75 89.3 74.75 98.35 75.5 104.85 74.6 110.15 74.25 112.4 73.3 112.25 72.4 112.05 72.5 109.8 73.3 94.7 67.1 83.4 62.4 74.9 55.4 70.7 47.7 66.1 40.95 69.45 34.45 72.65 34.1 82.0 33.75 90.2 37.9 99.55 41.2 106.95 47.05 112.5 50.8 116.1 55.0 118.4 57.2 119.55 56.7 120.4 L53.95 120.25 Q49.45 118.15 45.1 114.25 38.75 108.6 35.05 100.85 30.15 90.45 31.05 80.8"
       id="path68" />
    <path
       fill="#0f141b"
       d="M107.8 90.3 Q111.25 88.95 115.1 89.0 118.95 89.05 121.95 90.45 129.4 93.9 130.2 103.85 130.9 112.05 127.35 120.0 124.25 126.8 119.55 132.4 114.8 138.0 109.55 140.9 107.6 142.0 107.1 141.35 106.6 140.65 108.5 139.5 112.7 136.9 117.15 131.25 121.6 125.55 124.55 119.1 127.8 111.85 127.4 104.85 126.9 96.2 120.4 93.2 114.95 90.65 108.75 93.2 104.9 94.75 101.9 97.95 98.85 101.2 97.2 105.5 94.75 111.8 94.7 118.85 94.7 124.8 96.3 129.6 97.15 132.1 96.2 132.25 95.25 132.35 94.3 129.9 92.2 124.55 92.05 118.1 91.8 110.6 94.4 103.85 96.2 99.25 99.9 95.6 103.45 92.1 107.8 90.3"
       id="path69" />
    <path
       fill="#0f141b"
       d="M52.75 143.9 Q54.3 145.3 53.85 145.8 53.35 146.25 51.45 145.15 46.45 142.15 38.75 139.05 30.45 135.7 25.55 134.95 14.5 133.3 8.15 138.45 5.75 140.4 4.4 143.2 3.0 145.95 2.85 149.05 2.6 155.2 7.7 160.45 14.0 166.9 25.6 167.6 35.2 168.2 43.4 165.85 47.35 164.7 51.9 162.4 53.85 161.4 54.35 162.25 54.9 163.1 52.9 164.25 47.85 167.15 43.95 168.45 35.25 171.4 25.3 170.7 13.1 169.85 6.0 162.7 -0.35 156.4 0.0 148.65 0.2 145.1 1.8 141.75 3.45 138.35 6.15 136.15 9.15 133.65 13.55 132.4 19.3 130.75 26.05 131.75 31.75 132.65 39.8 136.2 48.35 139.95 52.75 143.9"
       id="path70" />
    <path
       fill="#ffffff"
       d="M234.1 98.5 Q237.25 102.2 234.9 108.05 232.85 113.2 228.2 117.0 223.45 120.85 218.2 121.9 212.0 123.15 208.95 119.35 205.95 115.6 208.45 109.6 210.55 104.5 214.85 100.9 219.1 97.35 224.55 96.25 231.0 94.9 234.1 98.5"
       id="path71" />
    <path
       style="fill:url(#linearGradient74);stroke-width:0.275082"
       d="m 278.63634,267.88407 c -5.00684,-1.71889 -12.97488,-6.82611 -15.69706,-10.06124 l -1.91464,-2.27543 3.11832,-0.53234 c 3.21175,-0.54829 6.34354,-2.39651 6.90255,-4.07353 0.23659,-0.70977 -0.11486,-0.81646 -1.3768,-0.41796 -8.57453,2.70772 -9.65432,2.83951 -15.88459,1.93871 -9.71208,-1.40422 -20.38136,-5.74318 -31.30154,-12.72964 -6.80316,-4.35249 -18.28875,-16.24665 -22.88585,-23.69996 -5.14421,-8.34032 -5.102,-7.87802 -0.95466,-10.45615 1.97038,-1.22485 3.58252,-2.72002 3.58252,-3.32259 0,-1.54947 -0.88748,-1.38566 -5.72627,1.05695 -15.5435,7.84634 -32.6417,9.53684 -45.31707,4.48052 l -4.48547,-1.7893 -6.17663,1.13056 c -40.21412,7.36068 -75.634248,-3.95481 -95.1517,-30.39763 -3.236974,-4.38554 -3.653756,-5.43056 -2.165873,-5.43056 1.364074,0 10.929412,-4.71378 11.526809,-5.68038 1.26873,-2.05285 -1.029332,-2.08951 -5.738464,-0.0916 -7.045091,2.98905 -12.504199,3.86859 -21.78864,3.51042 -6.698572,-0.25841 -8.667432,-0.61067 -12.02938,-2.15225 -13.2158979,-6.05997 -15.51186683,-20.79268 -4.270235,-27.40113 3.027061,-1.77947 3.930842,-1.94635 10.422542,-1.92444 8.186178,0.0276 11.399895,0.96887 24.432535,7.15583 4.446185,2.11073 8.204577,3.83769 8.351982,3.83769 0.147405,0 0.268008,-0.47779 0.268008,-1.06176 0,-1.99171 -11.439807,-8.9239 -19.17858,-11.62165 -1.180096,-0.41138 -2.145629,-1.17721 -2.145629,-1.70182 0,-3.77409 3.924442,-13.77873 7.25908,-18.50567 l 1.390305,-1.9708 3.316483,2.74241 c 5.161608,4.26815 8.829849,6.53024 10.589555,6.53024 2.718241,0 1.788875,-1.65542 -2.394323,-4.26484 -16.73274,-10.43768 -24.497005,-38.910041 -12.61337,-46.254532 5.970812,-3.690165 13.656414,-1.687633 20.525417,5.348027 6.982219,7.151628 10.514591,16.313453 11.455279,29.711295 0.34663,4.93691 0.750574,6.93036 1.404339,6.93036 1.282701,0 1.987388,-5.51744 1.510322,-11.82534 l -0.395848,-5.234024 4.74313,-0.0014 c 5.380944,-0.0016 17.182259,1.974985 17.182259,2.877884 0,0.32798 -0.626847,1.65876 -1.392997,2.95728 -2.269536,3.84658 -3.737523,11.5964 -3.468447,18.31069 l 0.241198,6.01884 -2.946259,0.50631 c -7.552481,1.2979 -15.835728,7.78255 -19.174393,15.01094 -1.807598,3.91354 -2.044537,5.2205 -2.027551,11.18405 0.02518,8.84057 2.150469,13.87394 8.237756,19.50969 5.642108,5.2236 10.399589,7.02281 18.753675,7.09233 5.767605,0.048 6.864575,-0.16815 11.145175,-2.19612 6.26441,-2.96781 10.74857,-7.2025 13.33219,-12.59045 3.70671,-7.73008 3.48976,-15.38363 -0.66241,-23.36799 l -2.12647,-4.08906 3.5925,-4.44062 c 1.97587,-2.44234 4.92498,-7.11994 6.55357,-10.39467 l 2.96107,-5.95405 6.32501,6.60162 c 6.20113,6.47232 14.36925,16.86676 18.59081,23.65796 l 2.12876,3.42451 4.29333,-0.44418 c 10.02135,-1.03682 23.05027,4.06262 31.92949,12.497 2.83807,2.69589 6.04811,6.18299 7.13344,7.74912 1.08533,1.56613 2.40962,2.84751 2.94287,2.84751 4.82534,0 -8.61503,-16.22029 -17.08059,-20.6134 l -3.42432,-1.77702 0.43819,-6.04186 c 1.05816,-14.59061 4.2721,-26.96646 10.08659,-38.84024 l 3.21219,-6.55963 2.8919,1.02032 c 7.57819,2.67375 7.35416,0.16473 -0.33596,-3.762678 -14.85158,-7.584815 -26.25763,-22.484062 -31.16433,-40.708641 -2.31193,-8.58703 -2.41349,-24.379923 -0.18742,-29.143086 4.10974,-8.793701 12.83236,-11.913084 24.83333,-8.880903 6.31876,1.596506 16.65017,6.948237 22.71056,11.764201 12.07162,9.592877 21.67104,26.238556 23.47969,40.714475 0.40614,3.250583 0.75113,4.050012 1.6695,3.868541 1.28863,-0.254637 1.5036,-3.40944 0.62909,-9.23245 l -0.50286,-3.348344 4.42511,-2.105482 c 8.60367,-4.093657 15.24253,-5.373022 27.52634,-5.30456 7.29806,0.04068 12.21733,0.406927 14.57154,1.08489 3.48344,1.003157 3.56109,1.086167 3.90944,4.179435 0.42217,3.748837 2.3769,4.499908 2.66383,1.023529 1.42681,-17.287174 7.66929,-31.267243 18.77475,-42.046157 8.23816,-7.995934 18.31036,-12.9917166 27.41122,-13.5958994 4.52615,-0.3004797 5.5967,-0.1151038 9.02679,1.5630832 7.77067,3.8018372 10.74324,10.6095782 10.57778,24.2250802 -0.13047,10.736482 -2.31908,19.786392 -7.21979,29.853893 -5.17197,10.624726 -11.18641,17.776948 -18.66289,22.193412 -1.13064,0.667882 -2.05569,1.625154 -2.05569,2.127282 0,1.07646 2.39338,1.203716 4.22299,0.224537 1.03617,-0.554536 1.86961,-0.105292 4.28573,2.310123 8.71721,8.714685 16.95064,24.505929 20.29108,38.917149 l 1.24102,5.35392 -2.18142,3.88657 c -2.5314,4.51015 -5.82439,13.94517 -5.82439,16.68796 0,3.32448 1.59062,1.55204 4.21896,-4.70123 3.51678,-8.367 6.40675,-13.20989 10.66009,-17.86372 6.62858,-7.25272 15.64809,-11.98908 24.80347,-13.0249 l 4.33078,-0.48996 2.89718,-4.87669 c 5.64909,-9.50882 14.92779,-19.690164 25.08836,-27.528993 3.69909,-2.853826 15.21316,-10.06378 16.07698,-10.067186 0.23081,-9.1e-4 0.31187,2.470707 0.18014,5.492482 -0.25346,5.814473 1.35526,13.688892 3.09088,15.129328 1.49409,1.239988 1.89128,-0.312748 0.99276,-3.881084 -1.23829,-4.917704 -0.47606,-15.539615 1.47816,-20.598647 2.33194,-6.03685 8.26467,-11.966026 13.5141,-13.505982 9.49882,-2.786555 17.26245,2.273836 17.26245,11.2518 0,4.061594 -1.69479,10.036794 -3.95182,13.932635 -0.79272,1.368303 -3.21022,4.314861 -5.37221,6.547897 -3.29318,3.401382 -3.7296,4.13733 -2.69003,4.536249 1.80659,0.693257 6.68733,-3.101969 9.8189,-7.635112 2.80929,-4.066612 5.44671,-11.350338 5.68872,-15.710455 0.0814,-1.466039 0.4824,-2.663742 0.89118,-2.661562 0.84734,0.0045 6.07868,1.409206 6.06584,1.628762 -0.005,0.07936 -0.48064,1.903539 -1.05777,4.05373 -1.3109,4.883912 -1.33275,6.397263 -0.0924,6.397263 0.55956,0 1.3628,-1.4363 1.8882,-3.376333 4.13576,-15.271589 12.0811,-27.115006 21.15162,-31.528859 5.04296,-2.453979 11.7209,-2.347138 15.64592,0.250319 4.99213,3.303635 6.44471,7.979669 4.74951,15.289238 -2.81827,12.152133 -13.20062,23.311701 -26.04539,27.995144 -3.88793,1.417605 -4.87686,2.230967 -3.61445,2.972751 0.89365,0.525095 7.76332,-1.508815 11.51176,-3.408291 l 3.53586,-1.791759 1.88799,3.221604 c 1.79615,3.064908 4.5663,10.792631 4.5663,12.738351 0,0.55377 -1.35995,1.09172 -3.46617,1.37112 -5.80554,0.77013 -16.46085,7.04391 -14.7941,8.71068 0.2548,0.25479 2.9566,-0.67648 6.00401,-2.06949 10.9056,-4.98509 20.57745,-5.0191 30.59641,-0.10761 6.72606,3.29725 9.38133,6.68458 9.38133,11.96779 0,7.66917 -6.50395,12.49677 -17.62238,13.08034 -8.68487,0.45584 -14.55842,-0.81001 -22.69632,-4.89142 -3.82734,-1.91953 -7.19048,-3.19872 -7.52646,-2.86274 -0.86353,0.86352 2.65557,3.91214 7.49058,6.48918 l 4.12695,2.19964 -2.86899,4.09002 c -6.75624,9.63168 -15.90502,17.12328 -27.81745,22.77869 -13.30037,6.31432 -24.83086,8.57573 -43.72596,8.57573 h -11.73497 l -4.0645,2.38214 c -9.80949,5.74918 -21.95256,8.96943 -33.84748,8.97607 -8.49083,0.005 -13.84667,-0.79323 -21.79663,-3.24748 -3.25866,-1.00599 -6.9644,-1.99799 -8.23496,-2.20444 -3.31413,-0.5385 -2.96403,1.05928 0.5331,2.433 3.29931,1.296 3.40588,1.88279 1.40204,7.72029 -4.00385,11.66389 -12.77026,26.18822 -21.35392,35.37951 -4.31752,4.62316 -14.56926,12.53354 -16.24328,12.53354 -0.29465,0 -1.21264,-2.74203 -2.04,-6.0934 l -1.50427,-6.0934 1.9955,-2.75471 c 2.68011,-3.69978 4.59806,-10.68723 4.00996,-14.60899 -1.24814,-8.32321 -8.68206,-9.15281 -12.83954,-1.43285 -1.74794,3.24574 -2.81337,3.21872 -4.51433,-0.11446 -0.74814,-1.46603 -2.61952,-4.23476 -4.15861,-6.15273 l -2.79837,-3.48721 2.76857,-2.50123 c 4.50302,-4.06821 6.14618,-8.78768 3.75152,-10.77507 -0.88752,-0.73657 -0.25436,-1.26246 3.94004,-3.27258 13.0772,-6.26708 23.01014,-16.436 27.043,-27.68548 2.12048,-5.91502 2.62665,-18.05218 1.03623,-24.84757 -7.72127,-32.990836 -47.42186,-53.830291 -83.27654,-43.713146 -6.83891,1.929734 -18.57928,7.883468 -23.78643,12.06248 -3.30101,2.649234 -5.18206,3.623943 -7.6729,3.975892 -9.41141,1.329799 -17.94573,9.171854 -18.96391,17.425624 -0.46398,3.76127 0.60924,6.12327 3.68734,8.11534 l 2.19878,1.423 -0.36256,8.58671 c -0.44803,10.61054 0.81139,17.01388 4.99187,25.38054 4.19086,8.38745 12.65514,16.71828 21.59314,21.25269 6.41394,3.25391 6.46407,3.29957 4.10757,3.74165 -4.47423,0.83938 -5.86184,5.36419 -2.95958,9.65081 1.41897,2.0958 7.12331,5.67371 10.66211,6.68756 1.96643,0.56336 1.76674,8.99188 -0.27858,11.75833 -3.22359,4.36013 -0.28703,15.51231 5.39932,20.50499 3.0158,2.64792 5.11986,3.28243 9.10988,2.74726 4.59717,-0.61661 6.91589,0.0827 6.91589,2.08582 0,2.01219 2.09428,2.34295 2.59961,0.41057 0.30494,-1.16612 0.81078,-1.21838 5.79761,-0.59885 10.47516,1.30135 21.63767,-1.51678 27.65517,-6.98194 4.18794,-3.80355 3.62029,-4.89137 -0.92174,-1.76637 -5.33423,3.67005 -11.67368,5.47515 -19.87405,5.65897 -12.48463,0.27984 -11.95485,0.39854 -11.47301,-2.57067 0.60666,-3.73845 4.09995,-10.75758 7.45131,-14.97207 5.38305,-6.76944 15.37703,-10.13674 21.17964,-7.13609 3.37763,1.74664 8.42636,7.66398 10.8223,12.68421 8.45007,17.70554 4.06792,34.56125 -11.29538,43.4471 -7.36081,4.25736 -17.92474,5.30408 -25.8996,2.56623 z M 224.2478,193.13621 c 2.54965,-1.29003 3.39838,-4.19264 1.89626,-6.48515 -3.02515,-4.61697 -13.0756,-6.67874 -17.29015,-3.54695 -2.725,2.02491 -2.85754,3.97761 -0.45159,6.65309 3.39385,3.77407 11.60427,5.52492 15.84548,3.37901 z m -31.493,-4.48827 c 3.9798,-2.96143 2.46834,-8.08001 -3.31551,-11.22797 -2.76526,-1.50504 -4.35125,-1.85065 -8.4927,-1.85065 -6.09382,0 -8.822,1.1983 -9.92377,4.35884 -1.15093,3.30155 0.75867,6.80227 4.90191,8.98627 2.7589,1.45429 3.9977,1.65449 9.0112,1.45626 4.5515,-0.17996 6.24783,-0.55372 7.81887,-1.72275 z m -42.13172,-1.98368 c 3.96452,-2.32336 6.49129,-7.04749 5.85771,-10.95178 -1.08526,-6.68766 -8.19683,-12.18109 -15.80691,-12.21027 -10.63828,-0.0408 -17.07428,9.48983 -12.18383,18.04214 4.13124,7.22463 14.46328,9.61468 22.13303,5.11991 z m 188.30064,-4.84883 c 3.50862,-1.0512 8.30549,-5.43483 8.30549,-7.58997 0,-0.86019 -0.8262,-2.39018 -1.836,-3.39998 -1.69515,-1.69516 -2.19996,-1.80995 -6.58063,-1.49652 -5.08133,0.36357 -8.53187,1.74734 -11.66367,4.67748 -2.50421,2.34296 -2.68289,5.94789 -0.37494,7.56444 1.91196,1.33919 8.08169,1.46337 12.14975,0.24455 z m 42.23184,-11.19604 c 5.67237,-2.57495 7.73641,-9.34721 3.9905,-13.09311 -2.33295,-2.33295 -4.20552,-2.8305 -9.11922,-2.42302 -8.87582,0.73605 -15.81338,10.04937 -10.84975,14.56524 2.1947,1.99672 3.04575,2.22854 8.35198,2.27506 3.11118,0.0273 5.60214,-0.40522 7.62649,-1.32417 z m 42.20163,-12.9184 c 5.66202,-1.89573 10.25802,-7.22923 11.01998,-12.78832 0.58398,-4.2606 -1.44273,-8.93334 -5.07694,-11.70529 -2.26234,-1.72557 -3.4849,-2.08759 -7.78283,-2.30463 -6.40925,-0.32365 -11.16328,1.53164 -15.23015,5.94369 -8.63581,9.36874 -2.81781,21.66352 10.25137,21.66352 2.42131,0 5.48966,-0.36404 6.81857,-0.80897 z m 48.91666,-13.10057 c 1.84108,-0.54675 5.11314,-2.25849 7.27123,-3.80386 12.73043,-9.11606 15.08702,-26.61079 5.08331,-37.73732 -12.67089,-14.093068 -37.4884,-10.295013 -45.58412,6.97617 -1.64046,3.49972 -1.89798,4.96759 -1.89798,10.81848 0,6.2221 0.18962,7.1544 2.34552,11.53203 5.60244,11.37599 18.90954,16.33418 32.78204,12.2145 z M 221.45053,83.695105 c 6.5741,-4.430282 7.80465,-14.16519 3.0287,-23.959965 -2.78875,-5.719308 -10.15252,-12.743337 -16.80828,-16.032792 -9.19441,-4.544123 -16.05807,-3.581159 -19.48585,2.733846 -1.73944,3.20456 -1.5678,11.688251 0.34282,16.94494 3.34761,9.210285 11.43556,17.982389 19.21438,20.839719 4.37785,1.60808 10.91381,1.357407 13.70823,-0.525748 z M 328.55484,73.095272 c 6.09731,-2.871685 12.95899,-13.114938 15.15787,-22.627976 1.44264,-6.241292 1.23653,-15.452418 -0.42149,-18.836385 -2.67752,-5.464769 -9.02559,-6.700209 -16.39221,-3.1902 -5.37604,2.561537 -12.91576,10.631764 -16.25288,17.396432 -2.45472,4.975959 -2.83633,6.429341 -3.09196,11.776083 -0.34185,7.150275 0.90607,10.452871 5.32658,14.096628 4.54823,3.749037 9.69047,4.203555 15.67409,1.385418 z"
       id="path72"
       transform="matrix(1.0001825,0,0,1.0001825,-0.35054745,-2.15)" />
    <path
       style="fill:#008000;stroke-width:0.420477"
       d="m 111.22794,135.0974 c -1.90169,-2.29803 -9.44069,-5.74861 -12.627818,-5.77971 -2.657821,-0.0259 -3.08942,-2.05677 -2.545061,-11.9754 0.829977,-15.12278 13.622899,-26.297681 24.303309,-21.229492 9.75273,4.627972 8.48105,21.114092 -2.78302,36.079222 -3.95165,5.25007 -4.28198,5.40127 -6.34741,2.90538 z"
       id="path74"
       transform="matrix(1.0001825,0,0,1.0001825,-0.35054745,-2.15)" />
  </g>
</svg>
